<svg id="圖層_1" data-name="圖層 1" xmlns="http://www.w3.org/2000/svg" viewBox="0 0 2404.61 1707.97"><defs><style>.cls-1{fill:#898989;}.cls-2{fill:#9fa0a0;}.cls-3{fill:#fff;}.cls-4{fill:#f39800;}.cls-5{fill:#f8b62d;}</style></defs><title>ssoLogin</title><path class="cls-1" d="M345.47,1854.61h89.84L447,1846H385.31v-21.09H495.47v18.75l-18,10.94h57V1878H464.22v7.81q0,22.65-24.22,23.44H420.47q-15.64.77-21.87,0.78-3.92-19.54-5.47-22.66,3.9,0.79,28.91.78,10.93,0,10.16-7.81V1878H345.47v-23.44Zm109.38-132.81,13.28,11.72a129.11,129.11,0,0,0-12.5,9.38q5.46,3.13,12.5,7.81l-7.81,9.38,7.81,7a45.7,45.7,0,0,1-6.25,4.69,45.42,45.42,0,0,1-6.25,5.47,136.64,136.64,0,0,0,14.06,8.59l-10.16,12.5h34.38v-7.81H471.25V1775.7h23.44v-7H471.25v-14.84h24.22V1746H468.13v-18.75h57l-3.91,71.09h10.16V1839H503.28v-21.09H377.5V1839H349.38v-40.62H358l-3.12-68q32.81-4.69,50-8.59l7,21.88q-10.95,2.34-27.34,4.69v5.47h24.22v14.84H385.31v7h23.44v14.84H386.09v7.81h32.81a36.24,36.24,0,0,0-3.12-4.69q-3.92-7-6.25-9.37,8.59-3.9,14.06-7l-7-4.69c-2.09-1.56-3.91-2.86-5.47-3.91l7-7a60.92,60.92,0,0,1-8.59-10.94,53.06,53.06,0,0,1,7.81-3.91,34.85,34.85,0,0,1,7-3.91q-2.34-1.56-6.25-4.69a67.91,67.91,0,0,1-7-3.91l10.16-11.72a101.78,101.78,0,0,1,14.84,8.59,34.7,34.7,0,0,0,3.91,2.34,67,67,0,0,1,7.81-6.25Q452.5,1723.36,454.84,1721.79ZM440,1788.2a173.52,173.52,0,0,1-16.41,10.16h29.69a68.06,68.06,0,0,0-7.81-6.25A29.39,29.39,0,0,1,440,1788.2Zm0-34.37q-3.92,2.34-11.72,6.25a80.52,80.52,0,0,1,7.81,4.69,34.7,34.7,0,0,0,3.91,2.34c1.56-.51,3.64-2.08,6.25-4.69a22.93,22.93,0,0,0,3.13-2.34,18.78,18.78,0,0,0-4.69-3.12A36.25,36.25,0,0,0,440,1753.83Z" transform="translate(-230.4 -459.82)"/><path class="cls-1" d="M552.5,1875.7h78.13v-28.91H566.56v-29.69h64.06v-26.56h-37.5q-3.92,7.82-12.5,23.44c0.51-1,0-.26-1.56,2.34q-6.26-3.9-29.69-15.62A202.78,202.78,0,0,0,579.06,1732l32.81,5.47q-3.13,11.72-7,22.66h25.78v-35.94h33.59v35.94h61.72v30.47H664.22v26.56h53.91v29.69H664.22v28.91h69.53v28.91H552.5V1875.7Z" transform="translate(-230.4 -459.82)"/><path class="cls-1" d="M900.94,1789q20.31,21.09,35.94,39.06l-25,20.31q-9.37-11.72-32.81-39.84-21.09,29.7-53.12,56.25,0.77,10.95,13.28,10.94H858q13.28,0,14.84-11.72,1.56-10.93,2.34-23.44,14.83,5.47,32,10.94a83.42,83.42,0,0,0-1.56,10.16q-1.57,8.61-4.69,21.09-6.26,21.86-35.94,21.09H828.28q-26.57,0-32-17.19-7.82,3.11-25,13.28-5.47,3.11-8.59,4.69-5.47-9.37-19.53-25.78a410.62,410.62,0,0,0,50.78-28.91v-85.16h31.25q-14.06-12.49-26.56-21.87l19.53-21.09a8.54,8.54,0,0,0,2.34,1.56q32,22.67,45.31,32.81l-21.87,24.22a9.56,9.56,0,0,0-2.34-1.56,147.87,147.87,0,0,0-15.62-13.28v58.59q25.78-24.21,46.09-59.37a301.16,301.16,0,0,0,16.41-28.91l28.13,15.63q-9.37,15.64-18,28.91a229.93,229.93,0,0,1-14.84,21.88Zm-137.5-16.41,28.91,8.59q-1.57,5.47-4.69,16.41-10.95,36.73-15.62,52.34L743.91,1839a60.81,60.81,0,0,1,3.13-8.59Q757.18,1796.81,763.44,1772.58Z" transform="translate(-230.4 -459.82)"/><path class="cls-1" d="M1011.09,1744.45q-28.12,29.7-51.56,46.88a67.91,67.91,0,0,1-3.91-7q-2.34-4.69-11.72-18.75,23.44-14.83,46.09-40.62Zm7,131.25v-23.44q-21.88,31.26-59.37,57.81-0.79-1.57-3.12-5.47-7-14.06-11.72-19.53,28.89-18.75,54.69-55.47l19.53,19.53v-84.37h34.38l1.56-9.37h-43v-25h122.66v25h-48.44l-2.34,9.38h43.75V1875.7h-28.12q5.46,2.34,15.63,6.25,16.41,6.26,22.66,8.59l-14.06,21.88q-9.37-4.69-32.81-15.62-10.95-4.69-15.62-7l11.72-14.06h-30.47l11.72,14.84a58.85,58.85,0,0,0-7,3.13q-26.57,12.49-43.75,18.75-6.26-10.95-13.28-22.66a191.46,191.46,0,0,0,39.84-14.06h-25Zm-5.47-77.34q-21.88,26.57-53.91,50.78-3.13-5.46-10.16-17.19-3.13-5.46-4.69-8.59,25-17.18,48.44-45.31Zm34.38-11.72V1796h50.78v-9.37H1047Zm0,28.91v9.38h50.78v-9.37H1047Zm50.78,37.5v-9.37H1047V1853h50.78Z" transform="translate(-230.4 -459.82)"/><path class="cls-1" d="M1193.13,1910.08H1165v-58.59a127.73,127.73,0,0,1-14.06,10.94q-3.13-16.41-7-31.25,28.89-25.78,46.09-54.69l15.63,10.94q18.75-25.78,23.44-64.06L1258,1728a197.22,197.22,0,0,1-5.47,23.44,67.91,67.91,0,0,0,7,3.91q7.8,4.69,10.94,7l-14.84,25a95.38,95.38,0,0,1-7.81-6.25,16.94,16.94,0,0,0-3.91-3.12,158.42,158.42,0,0,1-21.09,35.94,30.86,30.86,0,0,0-5.47-3.91,69.45,69.45,0,0,1-10.16-7.81q-7,10.16-14.06,19.53v66.41q23.44-22.65,20.31-68.75h29.69c0,2.61-.27,6.52-0.78,11.72q0,17.19-1.56,25,7,12.51,16.41,18v-62.5h11.72q-2.34-1.56-6.25-3.91a108.61,108.61,0,0,0-12.5-7.81q25.78-27.34,32-75.78l28.91,5.47q-0.79,3.92-2.34,11.72-2.34,10.16-3.91,14.84a68.06,68.06,0,0,1,6.25,7.81q18,19.54,25,28.13l-21.87,18.75q-8.61-12.49-20.31-26.56a210.86,210.86,0,0,1-16.41,27.34h8.59v14.84h42.19V1853h-42.19v27.34q12.49,0.79,41.41-.78h7.81a80.85,80.85,0,0,1-3.12,11.72q-2.34,10.93-3.12,15.63-41.42,0-49.22-.78-32-.79-48.44-20.31-5.47,10.93-17.19,25l-21.09-21.09v20.31Zm-5.47-185.94,24.22,17.19a583.14,583.14,0,0,1-52.34,56.25,61,61,0,0,0-3.12-7q-3.92-10.93-9.37-23.44Q1167.34,1750.7,1187.66,1724.14Z" transform="translate(-230.4 -459.82)"/><path class="cls-1" d="M1361.88,1864v-77.34h156.25V1864h-63.28v7h79.69v21.09h-79.69v18.75h-29.69v-18.75h-79.69V1871h79.69v-7h-63.28Zm-6.25-84.37v-49.22h78.91v49.22h-78.91Zm27.34-19.53h24.22v-9.37H1383v9.38Zm9.38,47.66v8.59h32.81v-8.59h-32.81Zm0,35.16h32.81v-8.59h-32.81v8.59Zm53.13-63.28v-49.22h79.69v49.22h-79.69Zm42.19,28.13h-32.81v8.59h32.81v-8.59Zm-32.81,35.16h32.81v-8.59h-32.81v8.59Zm17.19-82.81h25.78v-9.37H1472v9.38Z" transform="translate(-230.4 -459.82)"/><path class="cls-1" d="M1544.69,1798.36h190.63v35.16H1544.69v-35.16Z" transform="translate(-230.4 -459.82)"/><path class="cls-1" d="M1935.31,1880.39a290.75,290.75,0,0,0-27.34,29.69q-50-46.09-62.5-100-24.23,59.38-79.69,100.78a52.67,52.67,0,0,1-6.25-8.59q-10.16-14.06-15.62-19.53,65.63-46.87,83.59-118h-50.78v-28.91h85.16Q1871.25,1843.67,1935.31,1880.39Z" transform="translate(-230.4 -459.82)"/><path class="cls-1" d="M1958,1907V1738.2h164.84V1907H2090v-16.41h-98.44V1907H1958Zm33.59-139.06v94.53H2090v-94.53h-98.44Z" transform="translate(-230.4 -459.82)"/><path class="cls-1" d="M2170.47,1756.17a123.18,123.18,0,0,1,11.72,8.59q7.8,5.47,11.72,8.59a139,139,0,0,0,12.5-18h-52.34v-25h82a22,22,0,0,0-.78-4.69c0.51,1,.26.52-0.78-1.56h28.91a25.13,25.13,0,0,1,1.56,5.47q1.56,4.69,4.69,12.5,8.59-5.46,25.78-17.19c-0.53.52,0,.27,1.56-0.78l18,18.75c-1.56,1-3.65,2.34-6.25,3.91q-18,11.72-27.34,17.19a83.47,83.47,0,0,1,4.69,7q10.14-5.46,28.13-18a16.69,16.69,0,0,1,3.91-3.12l18,19.53q-3.92,2.34-10.16,7a181.44,181.44,0,0,1-20.31,12.5q12.49,8.61,31.25,15.63a213.52,213.52,0,0,0-11.72,27.34,80.13,80.13,0,0,1-14.84-7.81v41.41h-31.25l18,4.69L2286.88,1882h43.75v23.44H2149.38V1882h42.19l-9.37-11.72,18.75-4.69h-31.25v-40.62a132,132,0,0,1-17.19,8.59,191.55,191.55,0,0,0-9.37-27.34,185,185,0,0,0,30.47-14.84,164.92,164.92,0,0,0-14.06-11.72c-3.12-2.6-5.74-4.69-7.81-6.25Zm35.94,42.19q-5.48,5.47-10.94,10.16h89.84a67.77,67.77,0,0,1-10.94-10.16h-68Zm72.66,44.53v-11.72h-78.91v11.72h78.91ZM2215,1865.54l12.5,16.41h24.22l12.5-16.41H2215Zm21.88-107.81a119.13,119.13,0,0,1-11.72,18h30.47a148.56,148.56,0,0,1-18.75-44.53v26.56Z" transform="translate(-230.4 -459.82)"/><path class="cls-1" d="M2535.31,1880.39a290.75,290.75,0,0,0-27.34,29.69q-50-46.09-62.5-100-24.23,59.38-79.69,100.78a52.67,52.67,0,0,1-6.25-8.59q-10.16-14.06-15.62-19.53,65.63-46.87,83.59-118h-50.78v-28.91h85.16Q2471.25,1843.67,2535.31,1880.39Z" transform="translate(-230.4 -459.82)"/><path class="cls-2" d="M230.4,2128.2L244,2111.85c9.45,7.8,19.35,12.75,31.35,12.75,9.45,0,15.15-3.75,15.15-9.9v-0.3c0-5.85-3.6-8.85-21.15-13.35-21.15-5.4-34.8-11.25-34.8-32.1v-0.3c0-19,15.3-31.65,36.75-31.65,15.3,0,28.35,4.8,39,13.35l-12,17.4c-9.3-6.45-18.45-10.35-27.3-10.35s-13.5,4-13.5,9.15v0.3c0,6.9,4.5,9.15,22.65,13.8,21.3,5.55,33.3,13.2,33.3,31.5v0.3c0,20.85-15.9,32.55-38.55,32.55A66.82,66.82,0,0,1,230.4,2128.2Z" transform="translate(-230.4 -459.82)"/><path class="cls-2" d="M334.2,2120.7v-38.1h-9.6v-19.5h9.6v-20.55H357v20.55h18.9v19.5H357v34.35c0,5.25,2.25,7.8,7.35,7.8a23.19,23.19,0,0,0,11.25-2.85v18.3a33.61,33.61,0,0,1-18,4.65C343.65,2144.85,334.2,2139.3,334.2,2120.7Z" transform="translate(-230.4 -459.82)"/><path class="cls-2" d="M392.1,2115.15v-52h22.8V2108c0,10.8,5.1,16.35,13.8,16.35s14.25-5.55,14.25-16.35V2063.1h22.8v80.4h-22.8v-11.4c-5.25,6.75-12,12.9-23.55,12.9C402.15,2145,392.1,2133.6,392.1,2115.15Z" transform="translate(-230.4 -459.82)"/><path class="cls-2" d="M482.55,2103.45v-0.3c0-26.85,17.55-41.55,36.6-41.55,12.15,0,19.65,5.55,25,12V2034H567v109.5H544.2v-11.55c-5.55,7.5-13.2,13-25,13C500.4,2145,482.55,2130.3,482.55,2103.45Zm61.95,0v-0.3c0-13.35-8.85-22.2-19.5-22.2s-19.65,8.7-19.65,22.2v0.3c0,13.35,9,22.2,19.65,22.2S544.5,2116.8,544.5,2103.45Z" transform="translate(-230.4 -459.82)"/><path class="cls-2" d="M583.5,2103.75v-0.3c0-22.95,16.35-41.85,39.75-41.85,26.85,0,39.15,20.85,39.15,43.65,0,1.8-.15,3.9-0.3,6H606.15c2.25,10.35,9.45,15.75,19.65,15.75,7.65,0,13.2-2.4,19.5-8.25l13,11.55c-7.5,9.3-18.3,15-32.85,15C601.35,2145.3,583.5,2128.35,583.5,2103.75Zm56.7-6.75c-1.35-10.2-7.35-17.1-16.95-17.1s-15.6,6.75-17.4,17.1h34.35Z" transform="translate(-230.4 -459.82)"/><path class="cls-2" d="M679.34,2063.1h22.8v11.4c5.25-6.75,12-12.9,23.55-12.9,17.25,0,27.3,11.4,27.3,29.85v52h-22.8v-44.85c0-10.8-5.1-16.35-13.8-16.35s-14.25,5.55-14.25,16.35v44.85h-22.8v-80.4Z" transform="translate(-230.4 -459.82)"/><path class="cls-2" d="M776.54,2120.7v-38.1h-9.6v-19.5h9.6v-20.55h22.8v20.55h18.9v19.5h-18.9v34.35c0,5.25,2.25,7.8,7.35,7.8a23.19,23.19,0,0,0,11.25-2.85v18.3a33.61,33.61,0,0,1-18,4.65C786,2144.85,776.54,2139.3,776.54,2120.7Z" transform="translate(-230.4 -459.82)"/><path class="cls-2" d="M828.74,2132.85l9.75-15c8.7,6.3,17.85,9.6,25.35,9.6,6.6,0,9.6-2.4,9.6-6v-0.3c0-5-7.8-6.6-16.65-9.3-11.25-3.3-24-8.55-24-24.15v-0.3c0-16.35,13.2-25.5,29.4-25.5a55.64,55.64,0,0,1,30,9.3l-8.7,15.75c-7.95-4.65-15.9-7.5-21.75-7.5-5.55,0-8.4,2.4-8.4,5.55v0.3c0,4.5,7.65,6.6,16.35,9.6,11.25,3.75,24.3,9.15,24.3,23.85v0.3c0,17.85-13.35,25.95-30.75,25.95A56.32,56.32,0,0,1,828.74,2132.85Z" transform="translate(-230.4 -459.82)"/><path class="cls-2" d="M950.54,2128.2l13.65-16.35c9.45,7.8,19.35,12.75,31.35,12.75,9.45,0,15.15-3.75,15.15-9.9v-0.3c0-5.85-3.6-8.85-21.15-13.35-21.15-5.4-34.8-11.25-34.8-32.1v-0.3c0-19,15.3-31.65,36.75-31.65,15.3,0,28.35,4.8,39,13.35l-12,17.4c-9.3-6.45-18.45-10.35-27.3-10.35s-13.5,4-13.5,9.15v0.3c0,6.9,4.5,9.15,22.65,13.8,21.3,5.55,33.3,13.2,33.3,31.5v0.3c0,20.85-15.9,32.55-38.55,32.55A66.82,66.82,0,0,1,950.54,2128.2Z" transform="translate(-230.4 -459.82)"/><path class="cls-2" d="M1051.34,2034h22.8v40.5c5.25-6.75,12-12.9,23.55-12.9,17.25,0,27.3,11.4,27.3,29.85v52h-22.8v-44.85c0-10.8-5.1-16.35-13.8-16.35s-14.25,5.55-14.25,16.35v44.85h-22.8V2034Z" transform="translate(-230.4 -459.82)"/><path class="cls-2" d="M1140.89,2103.75v-0.3c0-23.1,18.6-41.85,43.65-41.85s43.35,18.45,43.35,41.55v0.3c0,23.1-18.6,41.85-43.65,41.85S1140.89,2126.85,1140.89,2103.75Zm64.5,0v-0.3c0-11.85-8.55-22.2-21.15-22.2-13,0-20.85,10-20.85,21.9v0.3c0,11.85,8.55,22.2,21.15,22.2C1197.58,2125.65,1205.38,2115.6,1205.38,2103.75Z" transform="translate(-230.4 -459.82)"/><path class="cls-2" d="M1243.79,2115.15v-52h22.8V2108c0,10.8,5.1,16.35,13.8,16.35s14.25-5.55,14.25-16.35V2063.1h22.8v80.4h-22.8v-11.4c-5.25,6.75-12,12.9-23.55,12.9C1253.83,2145,1243.79,2133.6,1243.79,2115.15Z" transform="translate(-230.4 -459.82)"/><path class="cls-2" d="M1334.23,2103.45v-0.3c0-26.85,17.55-41.55,36.6-41.55,12.15,0,19.65,5.55,25,12V2034h22.8v109.5h-22.8v-11.55c-5.55,7.5-13.2,13-25,13C1352.08,2145,1334.23,2130.3,1334.23,2103.45Zm61.95,0v-0.3c0-13.35-8.85-22.2-19.5-22.2s-19.65,8.7-19.65,22.2v0.3c0,13.35,9,22.2,19.65,22.2S1396.18,2116.8,1396.18,2103.45Z" transform="translate(-230.4 -459.82)"/><path class="cls-2" d="M1486.48,2038.5h23.1v84h52.35v21h-75.45v-105Z" transform="translate(-230.4 -459.82)"/><path class="cls-2" d="M1571.53,2103.75v-0.3c0-23.1,18.6-41.85,43.65-41.85s43.35,18.45,43.35,41.55v0.3c0,23.1-18.6,41.85-43.65,41.85S1571.53,2126.85,1571.53,2103.75Zm64.5,0v-0.3c0-11.85-8.55-22.2-21.15-22.2-13,0-20.85,10-20.85,21.9v0.3c0,11.85,8.55,22.2,21.15,22.2C1628.23,2125.65,1636,2115.6,1636,2103.75Z" transform="translate(-230.4 -459.82)"/><path class="cls-2" d="M1675.48,2159.4l7.8-17.1a52.47,52.47,0,0,0,27.15,7.35c15.6,0,22.95-7.5,22.95-21.9v-3.9c-6.75,8.1-14.1,13-26.25,13-18.75,0-35.7-13.65-35.7-37.5v-0.3c0-24,17.25-37.5,35.7-37.5,12.45,0,19.8,5.25,25.95,12v-10.5h22.8v62.25c0,14.4-3.45,24.9-10.2,31.65-7.5,7.5-19,10.8-34.65,10.8A76.27,76.27,0,0,1,1675.48,2159.4Zm57.9-60v-0.3c0-11-8.55-18.6-19.65-18.6s-19.5,7.65-19.5,18.6v0.3c0,11.1,8.4,18.6,19.5,18.6S1733.37,2110.35,1733.37,2099.4Z" transform="translate(-230.4 -459.82)"/><path class="cls-2" d="M1776.72,2034h24v20.25h-24V2034Zm0.6,29.1h22.8v80.4h-22.8v-80.4Z" transform="translate(-230.4 -459.82)"/><path class="cls-2" d="M1821.57,2063.1h22.8v11.4c5.25-6.75,12-12.9,23.55-12.9,17.25,0,27.3,11.4,27.3,29.85v52h-22.8v-44.85c0-10.8-5.1-16.35-13.8-16.35s-14.25,5.55-14.25,16.35v44.85h-22.8v-80.4Z" transform="translate(-230.4 -459.82)"/><path class="cls-2" d="M1953.42,2063.1h23.1l12.9,48.75,15.15-49h19.65l15.3,49.2,13.2-48.9h22.65l-25,81h-20.55l-15.45-49.35-15.75,49.35h-20.4Z" transform="translate(-230.4 -459.82)"/><path class="cls-2" d="M2089.62,2034h24v20.25h-24V2034Zm0.6,29.1H2113v80.4h-22.8v-80.4Z" transform="translate(-230.4 -459.82)"/><path class="cls-2" d="M2138.21,2120.7v-38.1h-9.6v-19.5h9.6v-20.55H2161v20.55h18.9v19.5H2161v34.35c0,5.25,2.25,7.8,7.35,7.8a23.19,23.19,0,0,0,11.25-2.85v18.3a33.61,33.61,0,0,1-18,4.65C2147.66,2144.85,2138.21,2139.3,2138.21,2120.7Z" transform="translate(-230.4 -459.82)"/><path class="cls-2" d="M2196.71,2034h22.8v40.5c5.25-6.75,12-12.9,23.55-12.9,17.25,0,27.3,11.4,27.3,29.85v52h-22.8v-44.85c0-10.8-5.1-16.35-13.8-16.35s-14.25,5.55-14.25,16.35v44.85h-22.8V2034Z" transform="translate(-230.4 -459.82)"/><path class="cls-2" d="M2330.36,2128.2l13.65-16.35c9.45,7.8,19.35,12.75,31.35,12.75,9.45,0,15.15-3.75,15.15-9.9v-0.3c0-5.85-3.6-8.85-21.15-13.35-21.15-5.4-34.8-11.25-34.8-32.1v-0.3c0-19,15.3-31.65,36.75-31.65,15.3,0,28.35,4.8,39,13.35l-12,17.4c-9.3-6.45-18.45-10.35-27.3-10.35s-13.5,4-13.5,9.15v0.3c0,6.9,4.5,9.15,22.65,13.8,21.3,5.55,33.3,13.2,33.3,31.5v0.3c0,20.85-15.9,32.55-38.55,32.55A66.82,66.82,0,0,1,2330.36,2128.2Z" transform="translate(-230.4 -459.82)"/><path class="cls-2" d="M2424.86,2128.2l13.65-16.35c9.45,7.8,19.35,12.75,31.35,12.75,9.45,0,15.15-3.75,15.15-9.9v-0.3c0-5.85-3.6-8.85-21.15-13.35-21.15-5.4-34.8-11.25-34.8-32.1v-0.3c0-19,15.3-31.65,36.75-31.65,15.3,0,28.35,4.8,39,13.35l-12,17.4c-9.3-6.45-18.45-10.35-27.3-10.35s-13.5,4-13.5,9.15v0.3c0,6.9,4.5,9.15,22.65,13.8,21.3,5.55,33.3,13.2,33.3,31.5v0.3c0,20.85-15.9,32.55-38.55,32.55A66.82,66.82,0,0,1,2424.86,2128.2Z" transform="translate(-230.4 -459.82)"/><path class="cls-2" d="M2523.41,2091.3V2091c0-29.85,23.55-54.3,55.95-54.3s55.65,24.15,55.65,54v0.3c0,29.85-23.55,54.3-55.95,54.3S2523.41,2121.15,2523.41,2091.3Zm87.45,0V2091c0-18-13.2-33-31.8-33s-31.5,14.7-31.5,32.7v0.3c0,18,13.2,33,31.8,33S2610.86,2109.3,2610.86,2091.3Z" transform="translate(-230.4 -459.82)"/><circle class="cls-3" cx="1209.6" cy="546.5" r="494"/><path class="cls-4" d="M1881.5,1006.33A509.14,509.14,0,0,1,1877,1073l1.88-14a496.18,496.18,0,0,1-34,124.68l5.29-12.54a498.79,498.79,0,0,1-64.3,110.24l8.21-10.63a502.07,502.07,0,0,1-89.66,89.66l10.63-8.21a498.79,498.79,0,0,1-110.24,64.3l12.54-5.29a496.18,496.18,0,0,1-124.68,34l14-1.88a504.17,504.17,0,0,1-133.38,0l14,1.88a496.18,496.18,0,0,1-124.68-34l12.54,5.29a498.79,498.79,0,0,1-110.24-64.3l10.63,8.21a502.07,502.07,0,0,1-89.66-89.66l8.21,10.63a498.79,498.79,0,0,1-64.3-110.24l5.29,12.54a496.18,496.18,0,0,1-34-124.68l1.88,14a504.17,504.17,0,0,1,0-133.38l-1.88,14a496.18,496.18,0,0,1,34-124.68l-5.29,12.54a498.79,498.79,0,0,1,64.3-110.24l-8.21,10.63a502.07,502.07,0,0,1,89.66-89.66l-10.63,8.21a498.79,498.79,0,0,1,110.24-64.3l-12.54,5.29a496.18,496.18,0,0,1,124.68-34l-14,1.88a504.17,504.17,0,0,1,133.38,0l-14-1.88a496.18,496.18,0,0,1,124.68,34l-12.54-5.29a498.79,498.79,0,0,1,110.24,64.3l-10.63-8.21a502.07,502.07,0,0,1,89.66,89.66l-8.21-10.63a498.79,498.79,0,0,1,64.3,110.24l-5.29-12.54a496.18,496.18,0,0,1,34,124.68l-1.88-14a509.14,509.14,0,0,1,4.46,66.69,54.19,54.19,0,0,0,15.38,37.12c9.11,9.11,24,16,37.12,15.38,13.58-.61,27.66-5.07,37.12-15.38s15.4-22.91,15.38-37.12c-0.08-56.34-8.62-113.57-26.1-167.17-16.82-51.62-40.93-101.39-72.46-145.65a588.23,588.23,0,0,0-55.08-67.07c-20.32-21.08-42.57-39.73-65.79-57.51-43.28-33.15-91.71-58.32-142.83-77.09-52.51-19.28-108.7-29.43-164.54-31.62a500.27,500.27,0,0,0-80.24,3.29c-30,3.66-59.57,8.68-88.63,16.94A540.21,540.21,0,0,0,1142.36,548c-45.11,29.67-86.58,65.59-120.94,107.3C1003,677.66,985.73,701.09,970.8,726c-15.1,25.16-27.38,51.6-38.53,78.73-21.35,51.93-33,107.23-37.3,163.13-4.36,56.53,1,114.34,14.32,169.4a539.68,539.68,0,0,0,62.87,151.72c27.86,45.86,62.71,88.39,102.85,124,40.56,36,86,66.88,135.54,89.21,26.9,12.13,54.41,22.85,82.86,30.76,29.1,8.09,58.79,13,88.77,16.53,56.89,6.63,114.76,2.95,170.82-8.46,53.6-10.91,105.91-31,153.65-57.57a544.69,544.69,0,0,0,127.55-98.65c37.31-39,69.62-83.89,93.69-132.27,24.57-49.39,42.6-102.13,51-156.72,4.55-29.68,7.57-59.44,7.61-89.48a54.14,54.14,0,0,0-15.38-37.12c-9.11-9.11-24-16-37.12-15.38-13.58.61-27.66,5.07-37.12,15.38S1881.52,992.09,1881.5,1006.33Z" transform="translate(-230.4 -459.82)"/><path class="cls-5" d="M1386.6,824.79c-1.8-17.4,7.8-30.6,24-30.6h58.8c16.2,0,25.8,13.2,24,30.6l-25.8,225.6c-1.8,16.2-12.6,26.4-27.6,26.4s-25.8-10.2-27.6-26.4Zm53.4,291.6c30,0,52.2,22.2,52.2,51v1.2c0,28.8-22.2,51-52.2,51s-52.2-22.2-52.2-51v-1.2C1387.8,1138.59,1410,1116.39,1440,1116.39Z" transform="translate(-230.4 -459.82)"/><text x="-230.4" y="-459.82"/></svg>